name rise44.8762peak52.3436fall86.788.mot
datacolumns 19
datarows 14
range 24.13157200000000 24.15324000000000
endheader
time	ground_force1_vx	ground_force1_vy	ground_force1_vz	ground_force1_px	ground_force1_py	ground_force1_pz	ground_force2_vx	ground_force2_vy	ground_force2_vz	ground_force2_px	ground_force2_py	ground_force2_pz	ground_torque1_x	ground_torque1_y	ground_torque1_z	ground_torque2_x	ground_torque2_y	ground_torque2_z	
24.13157200000000	-35.72825800000000	778.48657400000002	61.42838800000000	0.09789100000000	0.00000000000000	0.11197600000000	-10.52225800000000	62.29342700000000	7.05606000000000	0.32398200000000	0.00000000000000	-0.08506900000000	0.00000000000000	19.70286400000000	0.00000000000000	0.00000000000000	3.30403000000000	0.00000000000000	
24.13324800000000	-35.90342600000000	775.95766400000002	61.21421100000000	0.09746300000000	0.00000000000000	0.11185500000000	-10.86845700000000	69.14299300000000	7.54954100000000	0.32896500000000	0.00000000000000	-0.08530200000000	0.00000000000000	19.60898500000000	0.00000000000000	0.00000000000000	3.65102900000000	0.00000000000000	
24.13490400000000	-36.09074100000000	773.33100800000000	60.97605700000000	0.09705000000000	0.00000000000000	0.11173000000000	-11.02554200000000	75.83034600000001	7.96312000000000	0.33356800000000	0.00000000000000	-0.08552100000000	0.00000000000000	19.51517700000000	0.00000000000000	0.00000000000000	3.97688300000000	0.00000000000000	
24.13656900000000	-36.29042800000000	770.60580000000004	60.71361100000000	0.09665200000000	0.00000000000000	0.11160000000000	-10.99732700000000	82.33603200000000	8.29529300000000	0.33783000000000	0.00000000000000	-0.08572800000000	0.00000000000000	19.42149300000000	0.00000000000000	0.00000000000000	4.27865400000000	0.00000000000000	
24.13824300000000	-36.50268000000000	767.78124200000002	60.42660600000000	0.09626900000000	0.00000000000000	0.11146500000000	-10.79442000000000	88.66347399999999	8.54812100000000	0.34178400000000	0.00000000000000	-0.08592700000000	0.00000000000000	19.32797900000000	0.00000000000000	0.00000000000000	4.55495600000000	0.00000000000000	
24.13990600000000	-36.72766400000000	764.85653400000001	60.11482300000000	0.09590100000000	0.00000000000000	0.11132400000000	-10.43253700000000	94.83508500000001	8.72648900000000	0.34545800000000	0.00000000000000	-0.08611900000000	0.00000000000000	19.23467400000000	0.00000000000000	0.00000000000000	4.80575600000000	0.00000000000000	
24.14156900000000	-36.96551200000000	761.83087799999998	59.77809000000000	0.09554600000000	0.00000000000000	0.11117900000000	-9.93069100000000	100.88748400000000	8.83726100000000	0.34887600000000	0.00000000000000	-0.08630500000000	0.00000000000000	19.14161100000000	0.00000000000000	0.00000000000000	5.03207900000000	0.00000000000000	
24.14324200000000	-37.21632300000000	758.70347700000002	59.41628800000000	0.09520500000000	0.00000000000000	0.11102900000000	-9.30942200000000	106.86637700000000	8.88841800000000	0.35205800000000	0.00000000000000	-0.08648700000000	0.00000000000000	19.04881500000000	0.00000000000000	0.00000000000000	5.23569600000000	0.00000000000000	
24.14490300000000	-37.48016100000000	755.47353399999997	59.02934800000000	0.09487700000000	0.00000000000000	0.11087400000000	-8.58920200000000	112.82157599999999	8.88826500000000	0.35502100000000	0.00000000000000	-0.08666700000000	0.00000000000000	18.95630500000000	0.00000000000000	0.00000000000000	5.41879000000000	0.00000000000000	
24.14657300000000	-37.75705300000000	752.14025400000003	58.61725100000000	0.09456100000000	0.00000000000000	0.11071400000000	-7.78912900000000	118.80253100000000	8.84474100000000	0.35778000000000	0.00000000000000	-0.08684400000000	0.00000000000000	18.86409300000000	0.00000000000000	0.00000000000000	5.58366000000000	0.00000000000000	
24.14824500000000	-38.04698500000000	748.70283700000005	58.18003300000000	0.09425700000000	0.00000000000000	0.11055000000000	-6.92593700000000	124.85463799999999	8.76488500000000	0.36034900000000	0.00000000000000	-0.08702100000000	0.00000000000000	18.77218500000000	0.00000000000000	0.00000000000000	5.73245900000000	0.00000000000000	
24.14990200000000	-38.34990200000000	745.16048899999998	57.71778000000000	0.09396200000000	0.00000000000000	0.11038000000000	-6.01336500000000	131.01646299999999	8.65445800000000	0.36273900000000	0.00000000000000	-0.08719700000000	0.00000000000000	18.68057900000000	0.00000000000000	0.00000000000000	5.86700000000000	0.00000000000000	
24.15157700000000	-38.66570500000000	741.51241200000004	57.23063200000000	0.09367800000000	0.00000000000000	0.11020600000000	-5.06186000000000	137.31795000000000	8.51773600000000	0.36496100000000	0.00000000000000	-0.08737300000000	0.00000000000000	18.58926700000000	0.00000000000000	0.00000000000000	5.98862100000000	0.00000000000000	
24.15324000000000	-38.99424900000000	737.75781199999994	56.71877900000000	0.09340200000000	0.00000000000000	0.11002600000000	-4.07857800000000	143.77955399999999	8.35745000000000	0.36702500000000	0.00000000000000	-0.08755000000000	0.00000000000000	18.49823500000000	0.00000000000000	0.00000000000000	6.09811200000000	0.00000000000000	
